<svg xmlns="http://www.w3.org/2000/svg" width="124" height="124" viewBox="0 0 124 124">
  <g id="Group_95" data-name="Group 95" transform="translate(-898 -1679)">
    <circle id="Ellipse_63" data-name="Ellipse 63" cx="62" cy="62" r="62" transform="translate(898 1679)" fill="#e9e2bc"/>
    <g id="Icon_ionic-ios-megaphone" data-name="Icon ionic-ios-megaphone" transform="translate(918.034 1708.118)">
      <path id="Path_51" data-name="Path 51" d="M9.557,19.631a13.471,13.471,0,0,1,6.38-11.572.474.474,0,0,0-.249-.88h0c-5.6,0-10.047,4.459-10.868,10.237A2.083,2.083,0,0,0,3.368,19.6a2,2,0,0,0,1.584,2.171c.983,4.957,4.957,8.125,8.976,9.46h0a.639.639,0,0,0,.557-1.1A14.615,14.615,0,0,1,9.557,19.631Z" transform="translate(0 4.131)" fill="#c53a33"/>
      <path id="Path_52" data-name="Path 52" d="M57.134,11.412c-.147-.4-.308-.763-.469-1.129A15.046,15.046,0,0,0,53.482,5.56a7.239,7.239,0,0,0-5.1-2.185,6.7,6.7,0,0,0-3.784,1.144c-6.321,3.8-16.471,6.747-22.587,6.747s-5.779.029-5.779.029A13.752,13.752,0,0,0,14.7,35.5c1.775,1.481,3.461,1.291,3.095,3.256s-3.3,14.3-3.667,16.867-.425,4.033.587,5.28,7.26,3.491,9.973,3.491,2.024-1.276,2.024-6.424-1.364-19.316,2.42-19.316c7.084,0,10.78,2.537,16.324,4.649a7.86,7.86,0,0,0,2.948.689c.88,0,2.743-.279,5.089-2.669A15.2,15.2,0,0,0,56.68,36.6c.161-.381.323-.763.484-1.173A34.248,34.248,0,0,0,59.173,23.41,34.27,34.27,0,0,0,57.134,11.412Zm-3.9,23.027c-.939,2.3-2.581,4.136-3.945,4.136s-2.611-1.833-3.549-4.136a30.244,30.244,0,0,1-1.8-10.956,30.358,30.358,0,0,1,1.8-10.985c.939-2.288,2.185-3.667,3.535-3.667S52.25,10.224,53.2,12.5a29.55,29.55,0,0,1,.029,21.941Z" transform="translate(5.238 0)" fill="#c53a33"/>
    </g>
    <ellipse id="Ellipse_89" data-name="Ellipse 89" cx="7" cy="16.5" rx="7" ry="16.5" transform="translate(964.924 1714)" fill="#fff"/>
    <g id="Icon_ionic-ios-megaphone-2" data-name="Icon ionic-ios-megaphone" transform="translate(916.034 1706.118)">
      <path id="Path_51-2" data-name="Path 51" d="M9.557,19.631a13.471,13.471,0,0,1,6.38-11.572.474.474,0,0,0-.249-.88h0c-5.6,0-10.047,4.459-10.868,10.237A2.083,2.083,0,0,0,3.368,19.6a2,2,0,0,0,1.584,2.171c.983,4.957,4.957,8.125,8.976,9.46h0a.639.639,0,0,0,.557-1.1A14.615,14.615,0,0,1,9.557,19.631Z" transform="translate(0 4.131)" fill="#e78530"/>
      <path id="Path_52-2" data-name="Path 52" d="M57.134,11.412c-.147-.4-.308-.763-.469-1.129A15.046,15.046,0,0,0,53.482,5.56a7.239,7.239,0,0,0-5.1-2.185,6.7,6.7,0,0,0-3.784,1.144c-6.321,3.8-16.471,6.747-22.587,6.747s-5.779.029-5.779.029A13.752,13.752,0,0,0,14.7,35.5c1.775,1.481,3.461,1.291,3.095,3.256s-3.3,14.3-3.667,16.867-.425,4.033.587,5.28,7.26,3.491,9.973,3.491,2.024-1.276,2.024-6.424-1.364-19.316,2.42-19.316c7.084,0,10.78,2.537,16.324,4.649a7.86,7.86,0,0,0,2.948.689c.88,0,2.743-.279,5.089-2.669A15.2,15.2,0,0,0,56.68,36.6c.161-.381.323-.763.484-1.173A34.248,34.248,0,0,0,59.173,23.41,34.27,34.27,0,0,0,57.134,11.412Zm-3.9,23.027c-.939,2.3-2.581,4.136-3.945,4.136s-2.611-1.833-3.549-4.136a30.244,30.244,0,0,1-1.8-10.956,30.358,30.358,0,0,1,1.8-10.985c.939-2.288,2.185-3.667,3.535-3.667S52.25,10.224,53.2,12.5a29.55,29.55,0,0,1,.029,21.941Z" transform="translate(5.238 0)" fill="#e78530"/>
    </g>
    <g id="Icon_ionic-md-megaphone" data-name="Icon ionic-md-megaphone" transform="translate(959.384 1707.039)">
      <path id="Path_53" data-name="Path 53" d="M28.291,10.083l-3.049,3.036a10.739,10.739,0,0,1,0,15.206l3.049,3.049a15.057,15.057,0,0,0,0-21.292Z" transform="translate(0 2.739)" fill="#102f47"/>
      <path id="Path_54" data-name="Path 54" d="M31.508,6.961l-3,3a19.121,19.121,0,0,1,0,27.007l3,3a23.327,23.327,0,0,0,0-33Z" transform="translate(2.868 0)" fill="#102f47"/>
    </g>
  </g>
</svg>
