<svg xmlns="http://www.w3.org/2000/svg" width="94.151" height="82.382" viewBox="0 0 94.151 82.382">
  <path id="Icon_metro-image" data-name="Icon metro-image" d="M90.826,9.74l.011.011V80.343l-.011.011H8.466l-.01-.011V9.751l.01-.01Zm.011-5.884H8.455A5.9,5.9,0,0,0,2.571,9.74V80.354a5.9,5.9,0,0,0,5.884,5.884H90.837a5.9,5.9,0,0,0,5.884-5.884V9.74a5.9,5.9,0,0,0-5.884-5.884Zm-11.769,20.6a8.827,8.827,0,1,1-8.827-8.827A8.827,8.827,0,0,1,79.068,24.452Zm5.884,50.018H14.34V62.7l20.6-35.307L58.473,56.816h5.884l20.6-17.653Z" transform="translate(-2.571 -3.856)" fill="#f2f0ef"/>
</svg>
