<svg xmlns="http://www.w3.org/2000/svg" width="124" height="124" viewBox="0 0 124 124">
  <g id="Group_77" data-name="Group 77" transform="translate(-898 -1380)">
    <circle id="Ellipse_60" data-name="Ellipse 60" cx="62" cy="62" r="62" transform="translate(898 1380)" fill="#e9e2bc"/>
    <path id="Icon_awesome-pound-sign" data-name="Icon awesome-pound-sign" d="M41.44,45.3H35.319A1.615,1.615,0,0,0,33.7,46.919v6.841H17.222V36.694h11.3a1.615,1.615,0,0,0,1.615-1.615V29.7a1.615,1.615,0,0,0-1.615-1.615h-11.3V19.532c0-4.341,3.3-7.681,8.314-7.681a15.543,15.543,0,0,1,7.757,2.536,1.612,1.612,0,0,0,2.111-.361l3.834-4.778a1.614,1.614,0,0,0-.285-2.3,23.122,23.122,0,0,0-13.666-4.7c-11.02,0-18.827,7.1-18.827,16.948v8.885H2.691A1.615,1.615,0,0,0,1.076,29.7v5.382a1.615,1.615,0,0,0,1.615,1.615H6.458V53.916H1.615A1.615,1.615,0,0,0,0,55.53v5.382a1.615,1.615,0,0,0,1.615,1.615H41.44a1.615,1.615,0,0,0,1.615-1.615V46.919A1.615,1.615,0,0,0,41.44,45.3Z" transform="translate(939.472 1410.612)" fill="#c53a33"/>
    <path id="Icon_awesome-pound-sign-2" data-name="Icon awesome-pound-sign" d="M41.44,45.3H35.319A1.615,1.615,0,0,0,33.7,46.919v6.841H17.222V36.694h11.3a1.615,1.615,0,0,0,1.615-1.615V29.7a1.615,1.615,0,0,0-1.615-1.615h-11.3V19.532c0-4.341,3.3-7.681,8.314-7.681a15.543,15.543,0,0,1,7.757,2.536,1.612,1.612,0,0,0,2.111-.361l3.834-4.778a1.614,1.614,0,0,0-.285-2.3,23.122,23.122,0,0,0-13.666-4.7c-11.02,0-18.827,7.1-18.827,16.948v8.885H2.691A1.615,1.615,0,0,0,1.076,29.7v5.382a1.615,1.615,0,0,0,1.615,1.615H6.458V53.916H1.615A1.615,1.615,0,0,0,0,55.53v5.382a1.615,1.615,0,0,0,1.615,1.615H41.44a1.615,1.615,0,0,0,1.615-1.615V46.919A1.615,1.615,0,0,0,41.44,45.3Z" transform="translate(937.473 1408.612)" fill="#e78530"/>
  </g>
</svg>
